<?xml version="1.0" standalone="no"?>
<!DOCTYPE svg PUBLIC "-//W3C//DTD SVG 20010904//EN"
 "http://www.w3.org/TR/2001/REC-SVG-20010904/DTD/svg10.dtd">
<svg version="1.0" xmlns="http://www.w3.org/2000/svg"
 width="1274.000000pt" height="802.000000pt" viewBox="0 0 1274.000000 802.000000"
 preserveAspectRatio="xMidYMid meet">
<metadata>
Created by potrace 1.16, written by Peter Selinger 2001-2019
</metadata>
<g transform="translate(0.000000,802.000000) scale(0.100000,-0.100000)"
fill="#224e73" stroke="none">
<path d="M10713 7939 c-30 -15 -48 -33 -63 -63 l-20 -43 2 -1944 3 -1944 23
-33 c34 -48 70 -62 154 -62 81 0 123 18 155 67 17 25 18 71 23 652 l5 624 622
-660 c343 -363 634 -665 648 -671 14 -7 62 -12 106 -12 90 0 132 15 163 57 25
34 33 121 14 157 -8 15 -276 295 -597 622 l-583 596 44 46 c25 26 266 276 537
555 270 279 496 519 501 533 15 37 12 101 -5 134 -27 53 -71 75 -151 75 -42 0
-82 -6 -97 -14 -15 -8 -291 -297 -614 -642 l-588 -629 -5 1263 -5 1262 -22 31
c-13 17 -38 39 -57 48 -49 23 -141 21 -193 -5z"/>
<path d="M2275 7729 c-121 -35 -144 -234 -36 -306 l34 -23 508 0 509 0 0
-1722 c0 -1702 0 -1723 20 -1756 33 -54 73 -72 166 -72 94 0 137 21 166 80 17
33 18 137 18 1753 l0 1717 509 0 508 0 34 23 c19 12 42 38 51 57 39 76 11 196
-54 235 -32 20 -57 20 -1218 22 -669 1 -1198 -3 -1215 -8z"/>
<path d="M1090 6725 c-492 -78 -880 -430 -1024 -927 -46 -159 -58 -251 -63
-486 -7 -301 15 -469 89 -682 123 -351 388 -624 708 -728 217 -71 499 -81 739
-25 232 53 408 158 574 342 l47 53 0 -471 c0 -259 3 -471 8 -471 4 0 34 11 67
25 69 28 157 32 220 10 22 -8 46 -15 53 -15 19 0 18 3177 -2 3223 -51 123
-229 140 -313 31 -24 -32 -28 -47 -31 -130 l-4 -94 -98 93 c-150 142 -296 214
-509 251 -114 19 -340 20 -461 1z m475 -334 c228 -60 400 -202 505 -414 79
-160 83 -193 88 -617 3 -342 2 -383 -16 -470 -59 -288 -225 -516 -459 -634
-182 -91 -498 -121 -693 -66 -219 63 -401 223 -509 451 -91 191 -126 390 -118
674 11 374 98 618 296 827 133 141 271 220 451 259 116 26 339 21 455 -10z"/>
<path d="M6825 6674 c-166 -25 -345 -77 -490 -142 -172 -78 -208 -113 -208
-207 0 -96 55 -155 145 -155 37 0 68 12 160 59 208 109 412 157 623 148 142
-6 224 -29 311 -85 141 -92 224 -246 260 -486 17 -116 10 -150 -41 -195 -41
-35 -4 -28 -480 -96 -214 -31 -444 -69 -509 -86 -257 -63 -457 -180 -571 -331
-117 -156 -161 -318 -152 -559 5 -154 21 -220 77 -334 116 -237 341 -378 661
-416 412 -48 781 133 994 487 l35 58 0 -180 c0 -167 2 -183 23 -224 30 -60 71
-80 163 -80 83 0 127 23 157 80 16 33 17 90 14 985 -3 846 -6 959 -21 1035
-26 130 -52 211 -101 307 -118 235 -314 372 -600 418 -111 18 -329 18 -450 -1z
m815 -1575 c0 -214 -17 -328 -70 -465 -84 -220 -262 -407 -462 -487 -259 -103
-573 -61 -733 98 -72 73 -120 172 -136 286 -11 74 -10 101 3 184 45 276 218
401 651 470 125 20 705 103 730 104 16 1 17 -14 17 -190z"/>
<path d="M9445 6674 c-139 -21 -259 -59 -390 -123 -437 -214 -709 -633 -764
-1180 -41 -400 50 -803 246 -1080 25 -36 85 -105 132 -154 267 -275 640 -395
1079 -346 256 28 499 111 550 188 47 72 20 181 -54 216 -49 23 -109 16 -219
-28 -140 -55 -236 -72 -410 -71 -163 0 -224 10 -353 56 -149 54 -317 183 -404
312 -133 194 -196 408 -205 691 -19 576 244 1021 692 1175 209 72 473 66 710
-15 115 -40 157 -43 203 -15 49 30 72 75 72 143 0 102 -30 137 -158 178 -208
66 -503 88 -727 53z"/>
<path d="M5490 6666 c-269 -57 -473 -252 -596 -571 l-23 -60 -1 243 c0 267 -3
281 -61 323 -48 34 -150 38 -208 7 -88 -46 -81 76 -81 -1373 0 -1260 0 -1281
20 -1313 35 -57 73 -73 167 -70 74 3 84 6 112 32 16 15 34 40 40 55 7 17 12
281 14 751 3 700 4 729 26 850 25 140 83 325 132 421 99 197 230 318 403 371
62 19 84 20 215 14 130 -6 150 -4 180 12 53 29 73 73 69 159 -4 78 -21 108
-82 140 -41 21 -241 27 -326 9z"/>
<path d="M2945 3556 c-16 -7 -112 -93 -211 -190 -100 -97 -186 -176 -192 -176
-5 0 -26 16 -46 35 -136 128 -361 14 -331 -169 6 -35 23 -57 119 -154 61 -63
128 -122 148 -133 50 -26 133 -25 175 1 37 22 545 511 568 546 47 73 19 183
-59 229 -48 28 -121 33 -171 11z"/>
<path d="M6247 2390 c-133 -34 -207 -128 -207 -265 0 -87 21 -135 83 -192 131
-121 358 -86 442 68 54 100 36 237 -43 316 -64 64 -184 96 -275 73z m171 -119
c103 -73 91 -239 -21 -298 -46 -24 -126 -21 -171 6 -111 69 -109 233 4 301 48
28 142 24 188 -9z"/>
<path d="M5530 2130 l0 -260 50 0 50 0 0 74 0 74 108 3 c122 5 164 22 203 85
25 41 30 134 9 174 -44 86 -108 110 -292 110 l-128 0 0 -260z m269 159 c63
-22 80 -102 32 -150 -28 -28 -34 -29 -115 -29 l-86 0 0 95 0 95 69 0 c37 0 82
-5 100 -11z"/>
<path d="M6640 2382 c0 -4 37 -120 83 -257 l84 -250 55 -3 56 -3 39 113 c22
62 51 145 63 183 l23 70 61 -182 61 -183 55 0 55 0 83 248 c45 136 82 253 82
260 0 8 -17 12 -48 12 l-47 0 -59 -177 c-32 -98 -61 -181 -65 -185 -4 -5 -34
75 -66 177 l-60 184 -50 1 -51 0 -59 -180 c-33 -99 -62 -180 -65 -180 -3 0
-32 81 -65 180 l-59 180 -53 0 c-29 0 -53 -3 -53 -8z"/>
<path d="M7530 2130 l0 -260 195 0 195 0 0 45 0 45 -145 0 -145 0 0 65 0 65
125 0 125 0 0 45 0 45 -125 0 -125 0 0 60 0 60 140 0 140 0 0 45 0 45 -190 0
-190 0 0 -260z"/>
<path d="M8030 2131 l0 -261 55 0 55 0 0 75 0 76 62 -3 62 -3 51 -72 50 -73
59 0 58 0 -15 23 c-8 13 -34 50 -56 82 l-41 59 36 30 c96 78 82 236 -26 296
-41 23 -57 25 -197 28 l-153 4 0 -261z m275 155 c38 -16 55 -42 55 -85 0 -67
-32 -88 -145 -98 l-75 -6 0 102 0 101 65 0 c36 0 81 -6 100 -14z"/>
<path d="M8580 2130 l0 -260 200 0 200 0 0 45 0 45 -145 0 -145 0 0 65 0 65
120 0 120 0 0 45 0 45 -120 0 -120 0 0 60 0 60 135 0 135 0 0 45 0 45 -190 0
-190 0 0 -260z"/>
<path d="M9090 2129 l0 -261 163 4 c160 3 163 3 217 34 68 38 106 91 122 166
22 105 -18 212 -98 268 -57 38 -118 50 -266 50 l-138 0 0 -261z m317 148 c55
-29 78 -73 78 -149 0 -80 -19 -112 -85 -145 -35 -18 -61 -23 -127 -23 l-83 0
0 171 0 171 93 -4 c59 -3 103 -10 124 -21z"/>
<path d="M9920 2130 l0 -260 168 0 c222 1 270 18 293 104 14 52 0 102 -40 140
l-29 28 25 36 c35 52 29 124 -15 163 -45 40 -90 49 -254 49 l-148 0 0 -260z
m304 157 c32 -22 35 -66 6 -92 -16 -15 -42 -20 -110 -23 l-90 -4 0 72 0 73 84
-5 c56 -3 93 -10 110 -21z m15 -210 c33 -17 45 -39 37 -71 -10 -39 -58 -56
-161 -56 l-85 0 0 70 0 70 93 0 c53 0 102 -6 116 -13z"/>
<path d="M10410 2382 c0 -4 45 -82 100 -172 l100 -165 0 -87 0 -88 50 0 50 0
0 88 0 87 100 165 c55 91 100 168 100 173 0 4 -23 7 -52 5 l-52 -3 -63 -105
c-35 -58 -68 -111 -72 -119 -6 -10 -29 21 -81 108 l-73 121 -53 0 c-30 0 -54
-4 -54 -8z"/>
<path d="M12362 1597 c-33 -35 -30 -99 4 -126 26 -21 67 -27 99 -15 21 8 45
56 45 89 0 66 -102 102 -148 52z"/>
<path d="M8602 1360 c-146 -21 -282 -153 -320 -310 -33 -137 -22 -303 29 -409
37 -79 106 -153 172 -182 44 -21 68 -24 162 -24 126 0 172 15 244 80 l41 37 0
-147 c0 -137 1 -147 18 -139 9 5 36 8 60 7 l42 0 0 516 c0 569 2 554 -60 554
-37 0 -60 -23 -60 -62 l0 -25 -32 31 c-18 17 -47 38 -64 46 -28 15 -144 39
-169 36 -5 -1 -34 -5 -63 -9z m183 -129 c49 -22 90 -62 118 -116 19 -34 22
-61 25 -187 3 -117 0 -157 -13 -197 -39 -118 -119 -181 -241 -189 -93 -6 -149
13 -199 70 -143 158 -114 497 51 599 82 50 174 57 259 20z"/>
<path d="M10828 1359 c-216 -24 -364 -246 -345 -514 19 -267 161 -415 395
-415 98 0 178 17 251 54 51 26 63 47 50 84 -11 30 -41 28 -120 -5 -54 -23 -79
-27 -159 -27 -87 -1 -99 2 -149 29 -86 48 -141 139 -144 243 l-2 57 301 5
c235 4 305 8 317 19 35 29 15 206 -33 302 -66 128 -193 187 -362 168z m133
-110 c83 -28 143 -112 156 -217 l6 -52 -258 0 -257 0 7 37 c9 51 57 143 92
175 63 60 172 84 254 57z"/>
<path d="M11878 1359 c-81 -9 -129 -23 -185 -56 -35 -19 -43 -29 -43 -52 0
-16 7 -34 15 -41 17 -14 32 -11 130 24 170 62 289 8 317 -142 7 -39 8 -66 2
-71 -5 -5 -85 -21 -178 -35 -230 -35 -306 -71 -359 -171 -29 -55 -31 -193 -3
-245 49 -93 135 -140 256 -140 97 0 167 28 235 95 l55 53 0 -55 c0 -73 12 -93
55 -93 66 0 67 6 63 377 -5 366 -10 396 -72 470 -60 70 -153 96 -288 82z m237
-529 c0 -90 -23 -156 -73 -212 -144 -159 -396 -84 -367 108 8 59 52 108 113
128 51 17 275 55 307 53 18 -2 20 -9 20 -77z"/>
<path d="M10285 1341 c-51 -23 -102 -74 -126 -126 l-19 -40 0 63 c0 84 -10
102 -60 102 -29 0 -42 -5 -50 -19 -6 -13 -10 -168 -10 -436 0 -268 4 -423 10
-436 14 -25 71 -26 93 -1 15 16 17 49 17 261 0 181 4 259 15 309 34 148 111
225 229 228 81 3 108 38 70 92 -13 18 -24 22 -72 22 -34 0 -74 -8 -97 -19z"/>
<path d="M9184 1315 c-14 -22 -15 -60 -12 -322 4 -282 6 -302 28 -368 49 -141
148 -202 314 -193 98 6 166 36 220 99 l36 43 0 -50 c0 -65 20 -94 65 -94 24 0
38 6 45 19 6 13 10 168 10 436 0 268 -4 423 -10 436 -14 25 -71 26 -93 1 -14
-15 -16 -58 -19 -302 -3 -273 -4 -287 -26 -335 -30 -66 -66 -102 -127 -131
-119 -56 -243 -11 -296 108 -23 51 -24 65 -29 353 -3 165 -9 306 -13 313 -5 6
-24 12 -42 12 -26 0 -39 -6 -51 -25z"/>
<path d="M12376 1318 c-14 -19 -16 -78 -16 -433 0 -459 -1 -455 65 -455 24 0
38 6 45 19 6 13 10 169 10 440 0 368 -2 421 -16 435 -23 24 -70 20 -88 -6z"/>
<path d="M11319 590 c-23 -14 -42 -65 -35 -95 21 -83 145 -87 171 -5 17 54
-26 110 -84 110 -20 0 -43 -5 -52 -10z"/>
<path d="M9114 288 c-49 -47 -67 -59 -76 -50 -21 21 -75 14 -92 -10 -24 -35
-19 -55 25 -103 65 -71 85 -66 197 49 97 98 107 121 72 156 -32 32 -57 24
-126 -42z"/>
</g>
</svg>
